<?xml version="1.0" encoding="utf-8"?>
<!-- Generator: Adobe Illustrator 23.0.3, SVG Export Plug-In . SVG Version: 6.00 Build 0)  -->
<svg version="1.1" id="레이어_1" xmlns="http://www.w3.org/2000/svg" xmlns:xlink="http://www.w3.org/1999/xlink" x="0px"
	 y="0px" viewBox="0 0 81 51" style="enable-background:new 0 0 81 51;" xml:space="preserve">
<style type="text/css">
	.st0{fill:#35A1DC;}
	.st1{fill:#0C3553;}
	.st2{fill:#CECFCF;}
</style>
<g>
	<g>
		<path class="st0" d="M6.1,27L0.2,48.3c-0.4,1.4,0.5,2.5,1.9,2.5h12.8L21.5,27H6.1z"/>
	</g>
	<g>
		<polygon class="st0" points="39.5,24.4 46.1,0.6 31.4,0.6 24.9,24.4 		"/>
	</g>
	<g>
		<polygon class="st1" points="56.9,24.4 63.4,0.6 48.8,0.6 42.2,24.4 		"/>
	</g>
	<g>
		<path class="st1" d="M52.3,50.8h12.8c1.4,0,2.9-1.1,3.3-2.5L74.2,27H58.8L52.3,50.8z"/>
	</g>
	<g>
		<path class="st2" d="M28.8,0.6H15.9c-1.4,0-2.9,1.1-3.3,2.5L6.8,24.4h15.4L28.8,0.6z"/>
	</g>
	<g>
		<path class="st1" d="M74.9,24.4l5.9-21.3c0.4-1.4-0.5-2.5-1.9-2.5H66.1l-6.5,23.8H74.9z"/>
	</g>
	<g>
		<polygon class="st1" points="24.2,27 17.6,50.8 32.3,50.8 38.8,27 		"/>
	</g>
	<g>
		<polygon class="st1" points="41.5,27 34.9,50.8 49.6,50.8 56.1,27 		"/>
	</g>
</g>
</svg>
